<svg xmlns="http://www.w3.org/2000/svg" viewBox="0 0 96 96"><defs><clipPath id="circle"><circle cx="48" cy="48" r="47"/></clipPath></defs><g clip-path="url(#circle)"><path fill="#e8eef5" d="M0 0h96v96H0z"/><path d="M12 97c1-19 13-27 28-28h16c15 1 27 9 28 28" fill="#557b9e"/><path d="M39 57h18v16c-5 8-13 8-18 0Z" fill="#e8bd97"/><path d="M39 59h18v8c-6 4-12 3-18 0Z" fill="#33201b" opacity=".13"/><ellipse cx="28" cy="43" rx="4" ry="7" fill="#e8bd97"/><ellipse cx="68" cy="43" rx="4" ry="7" fill="#e8bd97"/><path d="M27 34c0-25 42-25 42 0v15c-1 10-11 19-21 19S28 59 27 49Z" fill="#e8bd97"/><path d="M27 41l-3-14c0-18 48-20 48 1l-3 15-5-15-27-2-6 15Z" fill="#242326"/><g stroke="#352a29" stroke-linecap="round"><path d="M35 38q5-3 9-1m9 0q5-2 9 1" fill="none" stroke-width="1.6"/><path d="M35 43q4-3 8 0m10 0q4-3 8 0" fill="none" stroke-width="1.5"/><path d="M39 42.5v1m18-1v1" stroke-width="2.2"/><path d="m48 45-2 7h4" fill="none" stroke-width="1.3" opacity=".45"/><path d="M42 57q6 5 12 0" fill="none" stroke-width="1.7"/></g><path d="M30 96V84m36 12V84" stroke="#416681" stroke-width="1.5"/></g><circle cx="48" cy="48" r="47" fill="none" stroke="#d5dfe9"/></svg>
